<?xml version="1.0" standalone="no"?>
<!DOCTYPE svg PUBLIC "-//W3C//DTD SVG 20010904//EN"
 "http://www.w3.org/TR/2001/REC-SVG-20010904/DTD/svg10.dtd">
<svg version="1.0" xmlns="http://www.w3.org/2000/svg"
 width="315.000000pt" height="315.000000pt" viewBox="0 0 315.000000 315.000000"
 preserveAspectRatio="xMidYMid meet">
<metadata>
Created by potrace 1.14, written by Peter Selinger 2001-2017
</metadata>
<g transform="translate(0.000000,315.000000) scale(0.100000,-0.100000)"
fill="#000000" stroke="none">
<path d="M1004 3136 c-71 -31 -115 -134 -118 -273 -2 -120 8 -196 38 -289 32
-99 76 -248 81 -271 5 -26 28 -111 72 -263 22 -74 50 -183 63 -242 l24 -107
-23 -83 c-22 -82 -38 -119 -122 -273 -23 -44 -57 -123 -75 -175 -34 -100 -33
-95 -19 -305 7 -107 100 -313 250 -552 102 -163 139 -204 220 -244 75 -37 137
-47 290 -47 279 0 405 72 481 274 14 37 32 99 40 138 36 172 88 358 130 465
25 64 47 123 50 131 2 8 17 60 34 115 36 118 46 188 32 237 -8 29 -6 44 10 79
51 112 -20 233 -132 225 -27 -2 -53 -7 -58 -10 -6 -3 -3 15 5 42 17 56 11 154
-13 190 -31 47 -139 78 -202 58 -20 -7 -21 -5 -12 16 11 24 51 163 76 263 36
143 54 209 98 360 60 201 75 278 69 356 -12 199 -218 263 -356 110 -58 -64
-84 -128 -132 -321 -32 -129 -69 -261 -100 -360 -13 -41 -36 -115 -51 -165
-26 -90 -70 -185 -85 -185 -17 0 -38 33 -63 97 -39 105 -113 340 -131 418 -27
116 -124 414 -155 474 -34 68 -62 99 -106 117 -41 17 -70 17 -110 0z m91 -102
c40 -40 83 -160 174 -484 145 -514 187 -603 289 -617 58 -8 94 21 136 110 49
104 179 519 192 613 2 17 18 77 34 134 51 172 97 243 165 256 100 18 131 -65
93 -242 -18 -82 -82 -318 -179 -654 -46 -160 -42 -143 -67 -251 -12 -48 -32
-111 -45 -140 -23 -49 -86 -244 -92 -278 -3 -20 -16 -26 -125 -56 -88 -23
-271 -104 -330 -146 -26 -18 -275 -179 -298 -193 -31 -19 2 75 77 219 156 297
164 348 93 630 -23 94 -47 181 -52 195 -5 14 -29 97 -55 185 -25 88 -59 205
-75 260 -37 126 -40 139 -45 258 -4 80 -1 106 15 149 26 69 59 87 95 52z
m1080 -1166 c25 -20 27 -26 22 -73 -3 -31 -24 -93 -50 -151 -25 -54 -48 -108
-51 -119 -5 -16 -15 -20 -48 -20 -24 -1 -66 -4 -94 -8 l-51 -7 34 112 c51 169
76 214 148 262 46 32 55 32 90 4z m203 -281 c18 -14 15 -89 -7 -139 -26 -60
-214 -340 -261 -387 -40 -40 -83 -55 -113 -40 -16 9 -13 15 28 55 52 53 90
114 100 164 4 19 19 57 32 84 22 43 24 54 14 85 -9 31 -8 43 14 86 44 90 137
135 193 92z m-305 -191 c4 -9 4 -23 1 -31 -9 -23 -150 -113 -189 -121 -61 -11
-118 26 -130 85 -2 13 1 21 11 21 18 0 10 -2 110 29 105 32 189 39 197 17z
m-403 -141 c0 -21 53 -66 106 -91 73 -34 123 -29 229 24 6 3 1 -5 -10 -17 -29
-34 -97 -71 -186 -102 -85 -30 -139 -67 -283 -198 -50 -45 -95 -80 -100 -79
-23 4 -56 -14 -56 -30 0 -20 12 -42 63 -116 43 -63 70 -77 98 -49 16 15 17 24
9 55 -6 20 -17 41 -25 48 -12 10 0 25 72 93 102 98 201 168 264 188 43 14 46
14 61 -7 21 -27 96 -48 148 -41 59 8 88 34 190 176 51 72 95 129 98 127 4 -4
-14 -56 -112 -325 -31 -85 -70 -211 -86 -280 -17 -69 -40 -164 -52 -211 -57
-237 -137 -307 -358 -314 -132 -4 -253 10 -303 36 -22 11 -56 37 -76 58 -47
50 -153 220 -204 328 -21 47 -52 105 -68 130 -52 82 -78 202 -57 262 13 39 46
67 185 159 178 117 341 210 413 233 14 5 38 -31 40 -57z"/>
</g>
</svg>
